<?xml version="1.0" encoding="utf-8"?>
<!-- Generator: Adobe Illustrator 26.2.1, SVG Export Plug-In . SVG Version: 6.00 Build 0)  -->
<svg version="1.1" id="Layer_1" xmlns="http://www.w3.org/2000/svg" xmlns:xlink="http://www.w3.org/1999/xlink" x="0px" y="0px"
	 viewBox="0 0 464.15 456.67" style="enable-background:new 0 0 464.15 456.67;" xml:space="preserve">
<style type="text/css">
	.st0{fill:none;}
	.st1{fill:#A0998D;}
</style>
<g>
	<path class="st0" d="M68.77,12.78l-44.24,3.14l2.57,36.31c3.99-0.18,7.9-0.27,11.76-0.2c10.42,0.12,22.33,1.62,32.93,2.84
		C71.32,44.01,69.75,25.41,68.77,12.78z"/>
	<polygon class="st0" points="121.77,71.3 80.7,72.68 82.04,112.56 121.02,113.26 	"/>
	<path class="st1" d="M245.9,117.55l-4.15-0.15l-25.02-0.89l-22,3.45l-14.35-4.74l-27.54-0.98l-16.09-0.57l-0.77-42.86l173.86-5.86
		L135.76,59.1l-0.8-44.7l329.18-5.88L246.16,4.63l-92.13,1.7l-9.4-3.51l-15.76-0.28L123,2.43l-0.11,6.09L122,58.63l-49.08-1.65
		c1.13-17.3,2.6-34.67,3.77-52.15l-4.25-0.3L55.01,3.29L40.77,5.2l-5.28-3.29L16,0.52L8.6,0L8,8.52c-0.16,2.1-0.54,7.49-1.03,14.38
		c-0.42,5.98,1.95,14.55,1.45,21.6c-0.37,5.2-3.59,8.91-3.92,13.59c-0.63,8.89-1.13,15.98-1.29,18.07
		c19.87,1.43,40.54,2.27,60.81,1.33l-1.17,34.73L16,111.39l-9.83-0.18L5.99,121.4l-1.51,84.46l2.99,4.4l-0.98,30.77l6.88,215.64
		l13.4-292.85l-2.25-13.24l1.94-3.78l-0.28-15.57l36.04-0.64l-0.65,19.23l3.05,10.96l-4.48,31.32l-1.11,33.04l1.24,9.31l11.51,41.58
		l10.29-92.77l1.47-26.04l-0.91-26.99l37.95-0.68l-1.13,32.01l2.32,12.98l-3.82,29.45l-1.07,30.3l-0.41,11.59
		c5.14,0.2,10.93-1.55,17.46-3.11c0,0,23.5,3.83,35.82,3.84c5.8,0,13.87-3.34,19.54-3.36c6.13-0.02,12.34,3.32,17.75,3.53
		c18.99,0.75,32.35-0.67,34.42-0.76c0.12-4.86,3.01-91.75,4.3-124.6L245.9,117.55z M24.52,58.1V15.92l27.79-3.14h16.45
		C69.75,25.4,71.31,44,71.79,54.86L51.95,58.1H24.52z M82.04,112.56L80.7,72.68l41.07-1.38l-0.75,41.96L82.04,112.56z
		 M140.44,221.84c-0.1-2.89-3.16-8.2-3.29-11.79c-0.24-6.9,2.41-12.88,2.12-21.2c-0.8-22.51-1.68-47.45-2.12-59.74l100.75-3.57
		c1.06,28.8,2.93,70.88,3.5,97.98C207.35,221.54,174.41,220.76,140.44,221.84z"/>
</g>
</svg>
