<?xml version="1.0" encoding="utf-8"?>
<!-- Generator: Adobe Illustrator 26.2.1, SVG Export Plug-In . SVG Version: 6.00 Build 0)  -->
<svg version="1.1" id="Layer_1" xmlns="http://www.w3.org/2000/svg" xmlns:xlink="http://www.w3.org/1999/xlink" x="0px" y="0px"
	 viewBox="0 0 464.15 456.67" style="enable-background:new 0 0 464.15 456.67;" xml:space="preserve">
<style type="text/css">
	.st0{fill:none;}
	.st1{fill:#A0998D;}
</style>
<g>
	<path class="st0" d="M395.38,12.78l44.24,3.14l-2.57,36.31c-3.99-0.18-7.9-0.27-11.76-0.2c-10.42,0.12-22.33,1.62-32.93,2.84
		C392.83,44.01,394.4,25.41,395.38,12.78z"/>
	<polygon class="st0" points="342.38,71.3 383.45,72.68 382.11,112.56 343.13,113.26 	"/>
	<path class="st1" d="M218.4,121.4c1.29,32.85,4.18,119.73,4.3,124.6c2.07,0.09,15.43,1.51,34.42,0.76
		c5.42-0.21,11.62-3.56,17.75-3.53c5.66,0.02,13.74,3.36,19.54,3.36c12.32-0.01,35.82-3.84,35.82-3.84
		c6.52,1.56,12.32,3.31,17.46,3.11l-0.41-11.59l-1.07-30.3l-3.82-29.45l2.32-12.98l-1.13-32.01l37.95,0.68l-0.91,26.99l1.47,26.04
		l7.75,133.69l9.7-156.17l3.05-10.96l-0.65-19.23l36.04,0.64l-0.28,15.57l1.94,3.78l-2.25,13.24l12.2,288.2l7.08-241.73l1.48-88.86
		l-0.18-10.19l-9.83,0.18l-46.85,0.84l-1.17-34.73c20.27,0.94,40.94,0.1,60.81-1.33c-0.16-2.09-0.67-9.18-1.29-18.07
		c-0.33-4.68-3.56-8.39-3.92-13.59c-0.5-7.05,1.87-15.62,1.45-21.59c-0.49-6.89-0.87-12.29-1.03-14.38l-0.6-8.52l-7.4,0.52
		l-19.49,1.38l-5.28,3.29l-14.25-1.91L391.7,4.54l-4.25,0.3c1.16,17.49,2.64,34.85,3.77,52.15l-49.08,1.65l-0.89-50.11l-0.11-6.09
		l-5.88,0.1L319.5,2.82l-9.4,3.51l-92.13-1.7L0,8.52l329.18,5.88l-0.8,44.7l-174.07,5.87l173.86,5.86l-0.77,42.86l-16.09,0.57
		l-27.54,0.98l-14.35,4.74l-22-3.45l-25.02,0.89l-4.15,0.15L218.4,121.4z M412.19,58.1l-19.84-3.23
		c0.48-10.86,2.04-29.45,3.03-42.08h16.45l27.79,3.14V58.1H412.19z M343.13,113.26l-0.75-41.96l41.07,1.38l-1.34,39.88
		L343.13,113.26z M222.74,223.52c0.57-27.1,2.44-69.19,3.5-97.98L327,129.11c-0.44,12.28-1.32,37.23-2.12,59.74
		c-0.3,8.33,2.36,14.31,2.12,21.2c-0.13,3.59-3.18,8.9-3.29,11.79C289.74,220.76,256.8,221.54,222.74,223.52z"/>
</g>
</svg>
