<?xml version="1.0" encoding="utf-8"?>
<!-- Generator: Adobe Illustrator 26.2.1, SVG Export Plug-In . SVG Version: 6.00 Build 0)  -->
<svg version="1.1" id="Layer_1" xmlns="http://www.w3.org/2000/svg" xmlns:xlink="http://www.w3.org/1999/xlink" x="0px" y="0px"
	 viewBox="0 0 464.15 456.67" style="enable-background:new 0 0 464.15 456.67;" xml:space="preserve">
<style type="text/css">
	.st0{fill:none;}
	.st1{fill:#A0998D;}
</style>
<g>
	<path class="st0" d="M395.38,443.89l44.24-3.14l-2.57-36.31c-3.99,0.18-7.9,0.27-11.76,0.2c-10.42-0.12-22.33-1.62-32.93-2.84
		C392.83,412.67,394.4,431.26,395.38,443.89z"/>
	<polygon class="st0" points="342.38,385.37 383.45,383.99 382.11,344.11 343.13,343.41 	"/>
	<path class="st1" d="M218.25,339.12l4.15,0.15l25.02,0.89l22-3.45l14.35,4.74l27.54,0.98l16.09,0.57l0.77,42.86l-173.86,5.86
		l174.07,5.87l0.8,44.7L0,448.15l217.98,3.89l92.13-1.7l9.4,3.51l15.76,0.28l5.88,0.1l0.11-6.09l0.89-50.11l49.08,1.65
		c-1.13,17.3-2.6,34.67-3.77,52.15l4.25,0.3l17.42,1.23l14.25-1.91l5.28,3.29l19.49,1.38l7.4,0.52c0,0,0.6-8.52,0.6-8.52
		c0.16-2.1,0.54-7.49,1.03-14.38c0.42-5.97-1.94-14.54-1.45-21.59c0.37-5.2,3.59-8.91,3.92-13.59c0.63-8.89,1.13-15.98,1.29-18.07
		c-19.87-1.43-40.54-2.27-60.81-1.33l1.17-34.73l46.85,0.84l9.83,0.18l0.18-10.19l1.51-84.46l-2.99-4.4l0.98-30.77l3.36-40.02
		L464.15,0l-12.17,37.62l-18.61,31.22l0.5,27.87l3.46,27.88l-2.83,7.09l2.88,161.17l2.25,13.24l-1.94,3.78l0.28,15.57l-36.04,0.64
		l0.65-19.23l-3.05-10.96l4.48-31.32l1.11-33.04l-1.24-9.31l3.1-45.71l0.75-22.2l-15.36,26.33l-13.92,8.94l-1.27,7.9l1.49,44.28
		l3.41,31.65l-1.47,26.04l0.91,26.99l-37.95,0.68l1.13-32.01l-2.32-12.98l3.82-29.45l1.07-30.3c0,0,0.41-11.59,0.41-11.59
		c-5.14-0.2-10.93,1.55-17.46,3.11c0,0-23.5-3.83-35.82-3.84c-5.8,0-13.87,3.34-19.54,3.36c-6.13,0.02-12.34-3.32-17.75-3.53
		c-18.99-0.75-32.35,0.67-34.42,0.76c-0.12,4.86-3.01,91.75-4.3,124.6L218.25,339.12z M439.62,398.58v42.18l-27.79,3.14h-16.45
		c-0.99-12.62-2.55-31.22-3.03-42.08l19.84-3.23H439.62z M382.11,344.11l1.34,39.88l-41.07,1.38l0.75-41.96L382.11,344.11z
		 M323.71,234.83c0.1,2.89,3.16,8.2,3.29,11.79c0.24,6.9-2.41,12.88-2.12,21.2c0.8,22.51,1.68,47.45,2.12,59.74l-100.75,3.57
		c-1.06-28.8-2.93-70.88-3.5-97.98C256.8,235.13,289.74,235.92,323.71,234.83z"/>
</g>
</svg>
