<?xml version="1.0" encoding="utf-8"?>
<!-- Generator: Adobe Illustrator 26.2.1, SVG Export Plug-In . SVG Version: 6.00 Build 0)  -->
<svg version="1.1" id="Layer_1" xmlns="http://www.w3.org/2000/svg" xmlns:xlink="http://www.w3.org/1999/xlink" x="0px" y="0px"
	 viewBox="0 0 464.15 456.67" style="enable-background:new 0 0 464.15 456.67;" xml:space="preserve">
<style type="text/css">
	.st0{fill:none;}
	.st1{fill:#A0998D;}
</style>
<g>
	<path class="st0" d="M68.77,443.89l-44.24-3.14l2.57-36.31c3.99,0.18,7.9,0.27,11.76,0.2c10.42-0.12,22.33-1.62,32.93-2.84
		C71.32,412.67,69.75,431.26,68.77,443.89z"/>
	<polygon class="st0" points="121.77,385.37 80.7,383.99 82.04,344.11 121.02,343.41 	"/>
	<path class="st1" d="M245.75,335.27c-1.29-32.85-4.18-119.73-4.3-124.6c-2.07-0.09-15.43-1.51-34.42-0.76
		c-5.42,0.21-11.62,3.56-17.75,3.53c-5.66-0.02-13.74-3.36-19.54-3.36c-12.32,0.01-35.82,3.84-35.82,3.84
		c-6.52-1.56-12.32-3.31-17.46-3.11l0.41,11.59l1.07,30.3l3.82,29.45l-2.32,12.98l1.13,32.01l-37.95-0.68l0.91-26.99l-1.47-26.04
		L71.79,129l-7.18,166.91l-3.05,10.96l0.65,19.23l-36.04-0.64l0.28-15.57l-1.94-3.78l2.25-13.24L12.95,0L6,335.27l0.18,10.19
		l9.83-0.18l46.85-0.84l1.17,34.73c-20.27-0.94-40.94-0.1-60.81,1.33c0.16,2.09,0.67,9.18,1.29,18.07
		c0.33,4.68,3.56,8.39,3.92,13.59c0.5,7.05-1.87,15.62-1.45,21.59c0.49,6.89,0.87,12.29,1.03,14.38l0.6,8.52l7.4-0.52l19.49-1.38
		l5.28-3.29l14.25,1.91l17.42-1.23l4.25-0.3c-1.16-17.49-2.64-34.85-3.77-52.15l49.08-1.65l0.89,50.11l0.11,6.09l5.88-0.1
		l15.76-0.28l9.4-3.51l92.13,1.7l217.98-3.89l-329.18-5.88l0.8-44.7l174.07-5.87l-173.86-5.86l0.77-42.86l16.09-0.57l27.54-0.98
		l14.35-4.74l22,3.45l25.02-0.89l4.15-0.15L245.75,335.27z M51.95,398.58l19.84,3.23c-0.48,10.86-2.04,29.45-3.03,42.08H52.31
		l-27.79-3.14v-42.18L51.95,398.58L51.95,398.58z M121.02,343.41l0.75,41.96l-41.07-1.38l1.34-39.88L121.02,343.41z M241.41,233.15
		c-0.57,27.1-2.44,69.19-3.5,97.98l-100.75-3.57c0.44-12.28,1.32-37.23,2.12-59.74c0.3-8.33-2.36-14.31-2.12-21.2
		c0.13-3.59,3.18-8.9,3.29-11.79C174.41,235.92,207.35,235.13,241.41,233.15z"/>
</g>
</svg>
