<?xml version="1.0" encoding="utf-8"?>
<!-- Generator: Adobe Illustrator 26.2.1, SVG Export Plug-In . SVG Version: 6.00 Build 0)  -->
<svg version="1.1" id="Layer_1" xmlns="http://www.w3.org/2000/svg" xmlns:xlink="http://www.w3.org/1999/xlink" x="0px" y="0px"
	 viewBox="0 0 117.03 117.91" style="enable-background:new 0 0 117.03 117.91;" xml:space="preserve">
<style type="text/css">
	.st0{fill:#FDC888;}
</style>
<g>
	<path class="st0" d="M102.63,7.55c-1.1,1.98-2.36,3.9-3.26,5.97c-1.52,3.47-4.31,4.77-7.81,4.99c-1.43,0.09-2.88,0.02-4.32,0.02
		c-0.02,0.24-0.04,0.48-0.06,0.72c2.78,0.27,5.57,0.54,8.77,0.85c-2.55,1.75-5.03,3.46-7.67,5.27c0.77,0.06,1.48,0.12,2.19,0.17
		c-3.8,8.88-10.55,11.47-19.72,8.9c0.03,0.2,0.06,0.41,0.09,0.61c3.21,0.84,6.43,1.68,9.82,2.57c-2.69,3.51-6.56,4.55-10.75,5.76
		c0.74,0.34,1.18,0.55,1.76,0.82c-2.42,3.1-5.64,4.75-9.04,6.53c1.09,0.07,2.18,0.15,3.66,0.25c-4.88,6.03-8.64,12.99-17.78,12.84
		c1.6,0.29,3.19,0.58,5.01,0.9c-3.95,5.48-8.76,9.42-15.7,10.92c0.65,0.46,0.97,0.68,1.28,0.9c-1.66,2.6-5.42,4.58-9.3,4.62
		c5.07-11.92,11.53-22.77,19.01-33.02c7.51-10.28,16.45-19.27,25.65-28.06c-0.55,0.41-1.11,0.79-1.64,1.22
		C55.9,34.9,42.4,51.35,32.44,70.58c-6.67,12.88-12.07,26.32-14.87,40.68c-0.43,2.23-1.28,4.38-1.93,6.56c-0.26,0-0.52,0-0.79,0
		c0-1.05-0.15-2.12,0.04-3.14c1.9-10.48,5.04-20.61,9.11-30.44c0.74-1.79,0.97-3.45,0.46-5.33c-1.7-6.18-1.94-12.38,0.21-18.77
		c0.79,0.32,1.57,0.65,2.43,1c-0.4-3.58,0.99-6.5,3.05-9.14c0.8,1.75,1.55,3.41,2.31,5.08c-2.54-9.5,3.33-15.82,7.76-22.65
		c0.2,0.01,0.41,0.02,0.61,0.03c0.73,2.96,1.46,5.92,2.18,8.87c0.14-2.07-0.02-4.08-0.4-6.06c-0.61-3.18-0.37-6.31,1.59-8.84
		c2.73-3.55,5.85-6.79,8.81-10.16c0.3,0.13,0.6,0.26,0.9,0.39c-0.27,3.05-0.54,6.1-0.8,9.15c0.77-1.64,1.42-3.33,1.83-5.08
		c0.75-3.19,2.44-5.66,4.9-7.84c6.49-5.73,13.81-9.92,22.04-12.55c0.32-0.1,0.66-0.11,1.12-0.19c-1.03,2.59-1.98,4.98-2.94,7.37
		c1.77-2.36,2.88-5.1,4.69-7.23c2.04-2.39,5.2-2.22,8.6-2.31c-1.5,1.18-2.61,2.06-3.72,2.93c1.54-0.38,2.85-1.08,4.18-1.73
		c4.05-1.96,6.4-1.3,8.8,2.41C102.63,4.92,102.63,6.24,102.63,7.55z"/>
</g>
</svg>
