<?xml version="1.0" encoding="utf-8"?>
<!-- Generator: Adobe Illustrator 26.2.1, SVG Export Plug-In . SVG Version: 6.00 Build 0)  -->
<svg version="1.1" id="Layer_1" xmlns="http://www.w3.org/2000/svg" xmlns:xlink="http://www.w3.org/1999/xlink" x="0px" y="0px"
	 viewBox="0 0 51.14 51.14" style="enable-background:new 0 0 51.14 51.14;" xml:space="preserve">
<style type="text/css">
	.st0{fill:#302D29;stroke:#FFFFFF;stroke-miterlimit:10;}
	.st1{fill:#FFFFFF;}
</style>
<circle class="st0" cx="25.57" cy="25.57" r="25.57"/>
<g>
	<path class="st1" d="M12.57,38.57c0.04-0.5,0.13-0.96,0.2-1.44l0.27-1.36c0.18-0.9,0.41-1.77,0.66-2.61
		c1.13-1.05,2.19-2.17,3.29-3.25l6.53-6.53l6.53-6.53l3.27-3.27c1.73-0.44,3.45-0.91,5.39-1.14c-0.24,1.94-0.7,3.65-1.14,5.39
		l-3.27,3.27l-6.53,6.53l-6.53,6.53c-1.08,1.1-2.2,2.16-3.25,3.29c-0.84,0.25-1.71,0.47-2.61,0.66l-1.36,0.27
		C13.53,38.44,13.07,38.53,12.57,38.57z"/>
</g>
<g>
	<path class="st1" d="M12.64,12.51c1.8,0.2,3.7,0.63,5.41,1.12c2.14,2.23,7.53,7.55,9.78,9.82c2.14,2.14,7.72,7.72,9.8,9.8
		c0.44,1.73,0.91,3.45,1.14,5.39c-1.94-0.24-3.65-0.7-5.39-1.14c-2.05-2.05-7.67-7.67-9.8-9.8c-2.3-2.28-7.56-7.61-9.82-9.78
		C13.26,16.21,12.84,14.3,12.64,12.51L12.64,12.51z"/>
</g>
</svg>
