<?xml version="1.0" encoding="utf-8"?>
<!-- Generator: Adobe Illustrator 26.2.1, SVG Export Plug-In . SVG Version: 6.00 Build 0)  -->
<svg version="1.1" id="Layer_1" xmlns="http://www.w3.org/2000/svg" xmlns:xlink="http://www.w3.org/1999/xlink" x="0px" y="0px"
	 viewBox="0 0 51.14 51.14" style="enable-background:new 0 0 51.14 51.14;" xml:space="preserve">
<style type="text/css">
	.st0{fill:#302D29;stroke:#FFFFFF;stroke-miterlimit:10;}
	.st1{fill:#FDC788;}
</style>
<circle class="st0" cx="25.57" cy="25.57" r="25.57"/>
<g>
	<line class="st1" x1="12.57" y1="38.57" x2="38.7" y2="12.44"/>
	<path class="st1" d="M12.57,38.57c0.2-1.8,0.63-3.7,1.12-5.41c2.23-2.14,7.55-7.53,9.82-9.78c2.14-2.14,7.72-7.72,9.8-9.8
		c1.73-0.44,3.45-0.91,5.39-1.14c-0.24,1.94-0.7,3.65-1.14,5.39c-2.05,2.05-7.67,7.67-9.8,9.8c-2.28,2.3-7.61,7.56-9.78,9.82
		C16.27,37.95,14.37,38.37,12.57,38.57L12.57,38.57z"/>
</g>
<g>
	<line class="st1" x1="12.64" y1="12.51" x2="38.77" y2="38.64"/>
	<path class="st1" d="M12.64,12.51c1.8,0.2,3.7,0.63,5.41,1.12c2.14,2.23,7.53,7.55,9.78,9.82c2.14,2.14,7.72,7.72,9.8,9.8
		c0.44,1.73,0.91,3.45,1.14,5.39c-1.94-0.24-3.65-0.7-5.39-1.14c-2.05-2.05-7.67-7.67-9.8-9.8c-2.3-2.28-7.56-7.61-9.82-9.78
		C13.26,16.21,12.84,14.3,12.64,12.51L12.64,12.51z"/>
</g>
</svg>
