<?xml version="1.0" encoding="utf-8"?>
<!-- Generator: Adobe Illustrator 26.2.1, SVG Export Plug-In . SVG Version: 6.00 Build 0)  -->
<svg version="1.1" id="Layer_1" xmlns="http://www.w3.org/2000/svg" xmlns:xlink="http://www.w3.org/1999/xlink" x="0px" y="0px"
	 viewBox="0 0 117.03 117.91" style="enable-background:new 0 0 117.03 117.91;" xml:space="preserve">
<style type="text/css">
	.st0{fill:#FDC788;}
</style>
<g>
	<path class="st0" d="M29.55,47.08c-0.38-3.59-0.71-6.84-1.07-10.09c-0.37-3.27-0.66-6.56-0.29-9.81c0.84-7.43,3.64-13.85,9.6-18.81
		C43.51,3.6,49.91,0.68,57.28,0c3.72-0.34,7.33,0.58,10.8,1.84c6.84,2.49,12.4,6.73,16.6,12.68c1.47,2.08,2.46,4.4,2.95,6.9
		c0.62,3.21,1.56,6.36,1.31,9.71c-0.35,4.7-0.72,9.4-1.35,14.08c-0.06,0.43-0.07,0.87-0.13,1.61c0.48-0.75,0.76-1.26,1.11-1.72
		c0.69-0.93,1.57-1.48,2.78-1.24c1.18,0.23,1.57,1.17,1.8,2.16c0.32,1.34,0.19,2.71,0.1,4.06c-0.27,3.82-0.41,7.68-0.98,11.46
		c-0.52,3.43-1.98,6.5-5.29,8.24c-0.51,0.27-0.59,0.69-0.71,1.16c-0.98,4.08-1.66,8.23-2.98,12.22c-0.37,1.13-0.71,2.38-1.44,3.28
		c-1.62,2.02-1.34,4.18-1.02,6.46c0.18,1.28,0.73,1.99,1.89,2.59c5.27,2.71,10.21,5.98,15.17,9.2c6.03,3.92,12.01,7.92,18.02,11.89
		c0.3,0.2,0.61,0.39,0.88,0.62c0.39,0.33,0.22,0.55-0.2,0.63c-0.23,0.04-0.48,0.04-0.72,0.04c-38.07-0.01-76.15-0.02-114.22-0.04
		c-0.57,0-1.49,0.31-1.65-0.23c-0.19-0.68,0.78-0.85,1.28-1.18c3.91-2.63,7.83-5.26,11.77-7.85c7.14-4.68,14.24-9.43,21.79-13.45
		c0.73-0.39,1.05-0.91,1.14-1.68c0.14-1.15,0.31-2.3,0.47-3.44c0.06-0.48,0.09-0.96-0.2-1.39c-2.82-4.2-3.63-9.09-4.77-13.86
		c-0.18-0.74-0.41-1.47-0.5-2.22c-0.18-1.52-0.86-2.46-2.18-3.46c-2.61-1.98-4.02-4.94-4.28-8.27c-0.3-3.78-0.52-7.57-0.9-11.35
		c-0.14-1.35-0.19-2.72,0.36-4.02c0.77-1.84,2.48-2.18,3.93-0.8C28.59,45.23,28.94,46.04,29.55,47.08z"/>
</g>
</svg>
