<?xml version="1.0" encoding="utf-8"?>
<!-- Generator: Adobe Illustrator 26.2.1, SVG Export Plug-In . SVG Version: 6.00 Build 0)  -->
<svg version="1.1" id="Layer_1" xmlns="http://www.w3.org/2000/svg" xmlns:xlink="http://www.w3.org/1999/xlink" x="0px" y="0px"
	 viewBox="0 0 464.15 456.67" style="enable-background:new 0 0 464.15 456.67;" xml:space="preserve">
<style type="text/css">
	.st0{fill:none;}
	.st1{fill:#A0998D;}
</style>
<g>
	<polygon class="st0" points="342.38,71.3 383.45,72.68 382.11,112.56 343.13,113.26 	"/>
	<polygon class="st1" points="461.01,281.06 457.66,241.04 456.68,210.27 459.67,205.87 458.16,121.41 457.98,111.22 448.15,111.4 
		401.3,112.24 399.92,71.32 444.14,71.32 443.74,56.95 400.17,56.59 391.23,57 383.45,57.58 383.45,72.68 382.11,112.56 
		343.13,113.26 342.38,71.3 342.15,58.65 341.26,8.54 341.15,2.45 335.27,2.55 319.51,2.83 310.11,6.34 217.98,4.64 0,8.52 
		329.18,14.4 328.38,59.1 154.32,64.96 328.18,70.82 327.41,113.68 242.29,119.77 327.75,129.36 343.56,129.55 381.51,130.23 
		401.92,130.59 437.96,131.23 437.68,146.8 439.62,150.58 437.37,163.82 434.5,325 437.33,332.09 433.87,359.97 433.37,387.84 
		451.98,419.06 464.15,456.68 	"/>
</g>
<polygon class="st1" points="383.45,57.58 383.45,2.43 459.75,6.38 458.65,71.3 438.25,71.3 439.77,17.01 398.69,15.62 
	399.44,57.58 "/>
</svg>
