<?xml version="1.0" encoding="utf-8"?>
<!-- Generator: Adobe Illustrator 26.2.1, SVG Export Plug-In . SVG Version: 6.00 Build 0)  -->
<svg version="1.1" id="Layer_1" xmlns="http://www.w3.org/2000/svg" xmlns:xlink="http://www.w3.org/1999/xlink" x="0px" y="0px"
	 viewBox="0 0 464.15 456.67" style="enable-background:new 0 0 464.15 456.67;" xml:space="preserve">
<style type="text/css">
	.st0{fill:none;}
	.st1{fill:#A0998D;}
</style>
<g>
	<polygon class="st0" points="342.38,71.3 383.45,72.68 382.11,112.56 343.13,113.26 	"/>
	<path class="st1" d="M154.32,64.96l173.86,5.86l-0.77,42.86l-85.12,6.09l85.46,9.59l15.81,0.19l37.95,0.68l20.41,0.36l36.04,0.64
		l-0.28,15.57l1.94,3.78l-2.25,13.24L434.5,325l2.83,7.09l-3.46,27.88l-0.5,27.87l18.61,31.22l12.17,37.62l-3.14-175.62l-3.35-40.02
		l-0.98-30.77l2.99-4.4l-1.51-84.46l-0.18-10.19l-9.83,0.18l-46.85,0.84l-1.38-40.92h44.22l-0.4-14.37l-43.57-0.36l-8.94,0.41
		l-49.08,1.65l-0.89-50.11l-0.11-6.09l-5.88,0.1l-15.76,0.28l-9.4,3.51l-92.13-1.7L0,8.52l329.18,5.88l-0.8,44.7L154.32,64.96z
		 M342.38,71.3l41.07,1.38l-1.34,39.88l-38.98,0.7L342.38,71.3z"/>
</g>
<polygon class="st1" points="383.45,57.58 383.45,2.43 459.75,6.38 458.65,71.3 438.25,71.3 439.77,17.01 398.69,15.62 
	399.44,57.58 "/>
</svg>
