<?xml version="1.0" encoding="utf-8"?>
<!-- Generator: Adobe Illustrator 26.2.1, SVG Export Plug-In . SVG Version: 6.00 Build 0)  -->
<svg version="1.1" id="Layer_1" xmlns="http://www.w3.org/2000/svg" xmlns:xlink="http://www.w3.org/1999/xlink" x="0px" y="0px"
	 viewBox="0 0 464.15 456.67" style="enable-background:new 0 0 464.15 456.67;" xml:space="preserve">
<style type="text/css">
	.st0{fill:none;}
	.st1{fill:#A0998D;}
</style>
<g>
	<polygon class="st0" points="73.82,123.3 75.2,82.22 115.09,83.57 115.78,122.55 	"/>
	<path class="st1" d="M67.48,311.36l5.86-173.86l42.86,0.77l6.09,85.12l9.59-85.46l0.19-15.81l0.68-37.95l0.36-20.41l0.64-36.04
		l15.57,0.28l3.78-1.94l13.24,2.25l161.17,2.88l7.09-2.83l27.88,3.46l27.87,0.5l31.22-18.61l37.62-12.17L283.57,4.66l-40.02,3.35
		l-30.77,0.98L208.38,6l-84.46,1.51l-10.19,0.18l0.18,9.83l0.84,46.85l-40.92,1.38V21.53l-14.37,0.4L59.09,65.5l0.41,8.94
		l1.65,49.08l-50.11,0.89l-6.09,0.11l0.1,5.88l0.28,15.76l3.51,9.4l-1.7,92.13l3.89,208.98l5.88-320.18l44.7,0.8L67.48,311.36z
		 M73.82,123.3l1.38-41.07l39.88,1.34l0.7,38.98L73.82,123.3z"/>
</g>
<polygon class="st1" points="60.11,82.22 4.96,82.22 8.9,5.93 73.82,7.02 73.82,27.42 19.53,25.91 18.14,66.98 60.11,66.23 "/>
</svg>
