<?xml version="1.0" encoding="utf-8"?>
<!-- Generator: Adobe Illustrator 26.2.1, SVG Export Plug-In . SVG Version: 6.00 Build 0)  -->
<svg version="1.1" id="Layer_1" xmlns="http://www.w3.org/2000/svg" xmlns:xlink="http://www.w3.org/1999/xlink" x="0px" y="0px"
	 viewBox="0 0 464.15 456.67" style="enable-background:new 0 0 464.15 456.67;" xml:space="preserve">
<style type="text/css">
	.st0{fill:none;}
	.st1{fill:#A0998D;}
</style>
<g>
	<polygon class="st0" points="73.82,334.9 75.2,375.97 115.09,374.63 115.78,335.65 	"/>
	<path class="st1" d="M61.62,320.91l-44.7,0.8L11.04,1.52L7.15,210.51l1.7,92.13l-3.51,9.4L5.06,327.8l-0.1,5.88l6.09,0.11
		l50.11,0.89l-1.65,49.08l-0.41,8.94l0.36,43.57l14.37,0.4v-44.22l40.92,1.38l-0.84,46.85l-0.18,9.83l10.19,0.18l84.46,1.51
		l4.4-2.99l30.77,0.98l40.02,3.35l175.62,3.14l-37.62-12.17l-31.22-18.61l-27.87,0.5l-27.88,3.46l-7.09-2.83l-161.17,2.88
		l-13.24,2.25l-3.78-1.94l-15.57,0.28l-0.64-36.04l-0.36-20.41l-0.68-37.95l-0.19-15.81l-9.59-85.46l-6.09,85.12l-42.86,0.77
		l-5.86-173.86L61.62,320.91z M115.78,335.65l-0.7,38.98l-39.88,1.34l-1.38-41.07L115.78,335.65z"/>
</g>
<polygon class="st1" points="60.11,375.97 4.96,375.97 8.9,452.27 73.82,451.18 73.82,430.77 19.53,432.29 18.14,391.22 
	60.11,391.97 "/>
</svg>
