<?xml version="1.0" encoding="utf-8"?>
<!-- Generator: Adobe Illustrator 26.2.1, SVG Export Plug-In . SVG Version: 6.00 Build 0)  -->
<svg version="1.1" id="Layer_1" xmlns="http://www.w3.org/2000/svg" xmlns:xlink="http://www.w3.org/1999/xlink" x="0px" y="0px"
	 viewBox="0 0 464.15 456.67" style="enable-background:new 0 0 464.15 456.67;" xml:space="preserve">
<style type="text/css">
	.st0{fill:none;}
	.st1{fill:#A0998D;}
</style>
<g>
	<polygon class="st0" points="390.33,334.9 388.94,375.97 349.06,374.63 348.37,335.65 	"/>
	<path class="st1" d="M396.67,146.84l-5.86,173.86l-42.86-0.77l-6.09-85.12l-9.59,85.46l-0.19,15.81l-0.68,37.95l-0.36,20.41
		l-0.64,36.04l-15.57-0.28l-3.78,1.94l-13.24-2.25l-161.17-2.88l-7.09,2.83l-27.88-3.46l-27.87-0.5l-31.22,18.61L4.96,456.67
		l175.62-3.14l40.02-3.35l30.77-0.98l4.4,2.99l84.46-1.51l10.19-0.18l-0.18-9.83l-0.84-46.85l40.92-1.38v44.22l14.37-0.4l0.36-43.57
		l-0.41-8.94l-1.65-49.08l-0.47-13.77L396.67,146.84z M390.33,334.9l-1.38,41.07l-39.88-1.34l-0.7-38.98L390.33,334.9z"/>
</g>
<polygon class="st1" points="444.62,432.29 390.33,430.77 390.33,451.18 455.25,452.27 459.19,430.77 "/>
<polygon class="st1" points="459.19,375.97 459.19,333.67 453.1,1.52 446.24,333.67 444.89,375.97 404.04,375.97 404.04,391.97 
	446,391.22 459.19,391.97 "/>
<path class="st1" d="M447.22,321.7"/>
</svg>
