<?xml version="1.0" encoding="utf-8"?>
<!-- Generator: Adobe Illustrator 26.2.1, SVG Export Plug-In . SVG Version: 6.00 Build 0)  -->
<svg version="1.1" id="Layer_1" xmlns="http://www.w3.org/2000/svg" xmlns:xlink="http://www.w3.org/1999/xlink" x="0px" y="0px"
	 viewBox="0 0 464.15 456.67" style="enable-background:new 0 0 464.15 456.67;" xml:space="preserve">
<style type="text/css">
	.st0{fill:none;}
	.st1{fill:#A0998D;}
</style>
<g>
	<polygon class="st0" points="390.33,123.3 388.94,82.22 349.06,83.57 348.37,122.55 	"/>
	<path class="st1" d="M402.53,137.29l44.7-0.8l5.88,320.18l3.89-208.98l-1.7-92.13l3.51-9.4l0.28-15.76l0.1-5.88l-6.09-0.11
		l-50.11-0.89l1.65-49.08l0.41-8.94l-0.36-43.57l-14.37-0.4v44.22l-40.92-1.38l0.84-46.85l0.18-9.83l-10.19-0.18L255.77,6l-4.4,2.99
		L220.6,8.01l-40.02-3.35L4.96,1.52l37.62,12.17L73.8,32.3l27.87-0.5l27.88-3.46l7.09,2.83l161.17-2.88l13.24-2.25l3.78,1.94
		l15.57-0.28l0.64,36.04l0.36,20.41l0.68,37.95l0.19,15.81l9.59,85.46l6.09-85.12l42.86-0.77l5.86,173.86L402.53,137.29z
		 M348.37,122.55l0.7-38.98l39.88-1.34l1.38,41.07L348.37,122.55z"/>
</g>
<polygon class="st1" points="404.04,82.22 459.19,82.22 455.25,5.93 390.33,7.02 390.33,27.42 444.62,25.91 446,66.98 404.04,66.23 
	"/>
</svg>
