<?xml version="1.0" encoding="utf-8"?>
<!-- Generator: Adobe Illustrator 26.2.1, SVG Export Plug-In . SVG Version: 6.00 Build 0)  -->
<svg version="1.1" id="Layer_1" xmlns="http://www.w3.org/2000/svg" xmlns:xlink="http://www.w3.org/1999/xlink" x="0px" y="0px"
	 viewBox="0 0 464.15 456.67" style="enable-background:new 0 0 464.15 456.67;" xml:space="preserve">
<style type="text/css">
	.st0{fill:none;}
	.st1{fill:#A0998D;}
</style>
<g>
	<polygon class="st0" points="121.77,71.3 80.7,72.68 82.04,112.56 121.02,113.26 	"/>
	<path class="st1" d="M135.76,59.1l-0.8-44.7l329.18-5.88L246.16,4.63l-92.13,1.7l-9.4-3.51l-15.76-0.28L123,2.43l-0.11,6.09
		L122,58.63l-49.08-1.65l-8.94-0.41l-43.57,0.36l-0.4,14.37h44.22l-1.38,40.92L16,111.39l-9.83-0.18L5.99,121.4l-1.51,84.46
		l2.99,4.4l-0.98,30.77l-3.35,40.02L0,456.67l12.17-37.62l18.61-31.22l-0.5-27.87l-3.46-27.88l2.83-7.09l-2.88-161.17l-2.25-13.24
		l1.94-3.78l-0.28-15.57l36.04-0.64l20.41-0.36l37.95-0.68l15.81-0.19l85.46-9.59l-85.12-6.09l-0.77-42.86l173.86-5.86L135.76,59.1z
		 M121.02,113.26l-38.98-0.7L80.7,72.68l41.07-1.38L121.02,113.26z"/>
</g>
<polygon class="st1" points="80.7,57.58 80.7,2.43 4.4,6.38 5.49,71.3 25.9,71.3 24.38,17.01 65.45,15.62 64.7,57.58 "/>
</svg>
