<?xml version="1.0" encoding="utf-8"?>
<!-- Generator: Adobe Illustrator 26.2.1, SVG Export Plug-In . SVG Version: 6.00 Build 0)  -->
<svg version="1.1" id="Layer_1" xmlns="http://www.w3.org/2000/svg" xmlns:xlink="http://www.w3.org/1999/xlink" x="0px" y="0px"
	 viewBox="0 0 456.67 1901.73" style="enable-background:new 0 0 456.67 1901.73;" xml:space="preserve">
<style type="text/css">
	.st0{fill:none;}
	.st1{fill:#A0998D;}
</style>
<g>
	<polygon class="st0" points="124.13,1078.67 85.15,1077.97 83.81,1038.09 124.88,1036.7 	"/>
	<path class="st1" d="M138.88,1024.53l-13.77-0.46l-49.08-1.65l-8.94-0.41l-43.57,0.36l-0.4,14.37h44.22l-1.38,40.92l-46.85-0.84
		l-9.83-0.18l-0.18,10.19l1.48,88.85l2.74,726.06l16.56-772.5L27.63,1116l1.94-3.78l-0.19-10.46l37.12-0.54l6.54,435.31l11.3-435.27
		l-0.54-63.17l41.07-1.38l6.85,222.72l7.36-223.2L138.88,1024.53z"/>
</g>
<polygon class="st1" points="68.81,1022.99 69.56,981.03 28.49,982.41 30.01,1036.71 9.6,1036.7 8.51,971.78 84.81,967.84 
	84.81,1022.99 "/>
<g>
	<polygon class="st0" points="124.13,818.09 85.15,818.79 83.81,858.67 124.88,860.05 	"/>
	<path class="st1" d="M139.07,860.53l0.77-42.86l-0.34-19.68l-9.03-206.05l-6.78,205.86l-37.95-0.68L73.71,349.07l-8.38,447.69
		l-36.04-0.64l0.28-11.57l-1.94-3.78l2.25-13.24L14.2-0.01L9.59,690.33l0.98,30.77l-2.99,4.4l1.51,84.46l0.18,10.19l9.83-0.18
		l46.85-0.84l1.38,40.92l-0.25,14.73l8.94-0.41l49.08-1.65l13.77-0.46L139.07,860.53z M124.88,860.05l-41.07-1.38l1.34-39.88
		l38.98-0.7L124.88,860.05z"/>
</g>
<path class="st1" d="M84.81,1038.09"/>
<polygon class="st1" points="26.51,871.77 25.76,913.73 66.83,912.35 67.08,874.78 85.99,874.03 86.81,922.98 10.51,926.92 
	10.51,871.77 "/>
</svg>
