<?xml version="1.0" encoding="utf-8"?>
<!-- Generator: Adobe Illustrator 26.2.1, SVG Export Plug-In . SVG Version: 6.00 Build 0)  -->
<svg version="1.1" id="Layer_1" xmlns="http://www.w3.org/2000/svg" xmlns:xlink="http://www.w3.org/1999/xlink" x="0px" y="0px"
	 viewBox="0 0 29.28 29.28" style="enable-background:new 0 0 29.28 29.28;" xml:space="preserve">
<style type="text/css">
	.st0{fill:#454545;}
</style>
<g>
	<path class="st0" d="M14.64,29.28c-0.63,0-1.25-0.04-1.85-0.12c-0.77-0.1-1.52-0.25-2.24-0.47c-0.51-0.15-0.8-1.05-1.28-1.25
		c-0.4-0.16-0.99,0.38-1.37,0.18c-0.44-0.23-0.86-0.48-1.27-0.75c-0.38-0.25-0.75-0.52-1.11-0.81c-0.36-0.29-0.1-1.03-0.42-1.35
		c-0.6-0.58-1.76-0.77-2.26-1.45c-0.34-0.46-0.65-0.94-0.93-1.43c-0.31-0.55,0.6-2.1,0.36-2.69c-0.34-0.83-1.79-0.7-1.97-1.59
		c-0.09-0.43,0.4-1.13,0.35-1.57C0.58,15.46,0,15.2,0,14.64c0-0.5,0.03-1,0.08-1.49c0.05-0.49,2.29-1.08,2.38-1.56
		c0.2-0.98-1.66-1.83-1.27-2.73c0.21-0.5,1.47-1.35,1.74-1.82C3.19,6.58,2.46,6.5,2.78,6.07c0.37-0.51,0.77-0.99,1.19-1.44
		C4.4,4.17,5.06,4.55,5.54,4.15c0.39-0.32,0.6-1.43,1.02-1.71c0.43-0.28,0.87-0.54,1.32-0.78c0.91-0.48,1.88-0.86,2.88-1.14
		c0.56-0.15,1.25,0.32,1.84,0.24c0.7-0.1,1.3-0.76,2.03-0.76c0.52,0,1.03,0.03,1.53,0.08c0.52,0.05,1.03,0.14,1.53,0.24
		c0.8,0.17,0.81,2.48,1.55,2.77c0.68,0.27,2.1-1.49,2.72-1.12c0.49,0.28,0.96,0.59,1.41,0.93c0.45,0.34,0.88,0.7,1.29,1.08
		c0.41,0.38,0.79,0.79,1.16,1.22c0.36,0.43-0.68,1.73-0.37,2.2c0.36,0.54,2.07,0.26,2.36,0.85c0.32,0.66,0.6,1.35,0.82,2.07
		c0.21,0.67-0.39,1.47-0.28,2.17c0.11,0.74,0.93,1.38,0.93,2.14c0,0.75-0.06,1.48-0.17,2.2c-0.13,0.83-0.32,1.64-0.58,2.42
		c-0.18,0.54-0.4,1.08-0.64,1.59c-0.24,0.51-1.35-0.34-1.65,0.14c-0.3,0.48,0.22,2.29-0.13,2.73c-0.35,0.44-0.72,0.86-1.12,1.26
		c-0.4,0.4-0.82,0.77-1.26,1.12c-0.5,0.39-2.34,0.69-2.89,1.02c-0.56,0.34,0.17,0.7-0.44,0.97c-1.03,0.44-2.12,0.77-3.25,0.97
		C16.34,29.21,15.5,29.28,14.64,29.28z M16.35,5.62c0,0-0.15,0.56-1.08,0.56c-0.71,0-1.53-0.3-2.19-0.19
		c-0.59,0.1-2.02-0.52-2.52-0.37c-0.76,0.23-0.38,1.61-0.75,1.86C9.57,7.64,9.2,7.78,8.84,7.92c-0.36,0.14-0.7,0.3-0.91,0.51
		C7.38,9,7.43,9.82,7.04,10.53C6.8,10.97,6.16,11.31,6,11.79c-0.16,0.48-0.99,1.6-1.06,2.12C4.88,14.3,6,14.23,6,14.64
		c0,1.03-0.38,2.52-0.05,3.43c0.13,0.36,0.42,0.6,0.73,0.82c0.34,0.24,0.7,0.45,0.94,0.79c0.27,0.38-0.38,1.2-0.05,1.53
		c0.33,0.33,1.65,0.17,2.02,0.45c0.35,0.26,0.61,0.91,1,1.11c0.46,0.24,1.08,0.01,1.58,0.16c0.31,0.09,0.63,0.27,0.96,0.45
		c0.49,0.27,0.99,0.53,1.51,0.53c0.6,0,0.86,0.62,1.42,0.5c0.27-0.06,0.86-1.41,1.12-1.48c0.29-0.08,0.57-0.18,0.82-0.33
		c0.28-0.17,1.08,0.53,1.32,0.41c0.26-0.14-0.05-1.12,0.16-1.22c0.92-0.44,1.45-0.6,1.95-1.05c0.51-0.46-0.02-0.7,0.37-1.27
		c0.4-0.59,0.73-1.23,0.97-1.91c0.15-0.41,0.93-0.73,1.02-1.17c0.1-0.53-0.51-1.19-0.51-1.75c0-0.4-0.03-0.79-0.08-1.17
		c-0.05-0.39-0.13-0.78-0.24-1.16c-0.15-0.55,0.57-1.82,0.32-2.32c-0.26-0.5-1.5-0.24-1.84-0.68C21.02,8.78,20.53,8.3,20,7.88
		c-0.4-0.32-0.83-0.6-1.28-0.85c-0.41-0.23-0.81-0.47-1.16-0.68C16.86,5.93,16.35,5.62,16.35,5.62z"/>
</g>
</svg>
