<?xml version="1.0" encoding="utf-8"?>
<!-- Generator: Adobe Illustrator 26.2.1, SVG Export Plug-In . SVG Version: 6.00 Build 0)  -->
<svg version="1.1" id="Layer_1" xmlns="http://www.w3.org/2000/svg" xmlns:xlink="http://www.w3.org/1999/xlink" x="0px" y="0px"
	 viewBox="0 0 411.48 279.12" style="enable-background:new 0 0 411.48 279.12;" xml:space="preserve">
<style type="text/css">
	.st0{fill:#454545;}
</style>
<path class="st0" d="M268.91,27.98l-49.74-3.37l-5.95,3.37c0,0-202.81-3.16-202.81-13.23v0c0-2.52,0.68-1.45,1.92-3.63
	C13.66,8.78,88.62,0,88.62,0l16.79,4.9c2.06,0.34,4.19,0.34,6.25,0.02L134.1,0l133.19,0l51.98,2.96L329.01,0
	c0,0,73.37,4.69,73.37,14.76v0c0,2.52,0-0.08-1.24,2.1c-1.24,2.19-8.89,4.12-8.89,4.12C390.02,22.63,268.91,27.98,268.91,27.98z"/>
<path class="st0" d="M288.6,158.04l-28.82-5.25l-27.69,5.25h-37.92l-45.67-2.25l-13.26,2.25c0,0-135.23-16.31-135.23-23.15
	c0-6.84,54.94-11.92,54.94-11.92c2.18,0.45,4.44,0.46,6.62,0.03l31.78-3.05h113.54l12.81,4.02l52.51-4.02
	c0,0,134.05,7.84,136.12,10.73c2.81,3.91,4.46-0.47,4.46,4.62v0c0,3.38,0,4.87-1.31,7.79C410.16,146.04,288.6,158.04,288.6,158.04z"
	/>
<path class="st0" d="M268.91,279.12l-42.92-3.35l-12.77,3.35h-48.71l-30.1-3.04l-15.13,3.04c0,0-15.31-0.43-34.45-1.61
	c-10.05-0.62-16.32-3.99-26.82-5.06c-9.21-0.94-47.6-5.34-47.6-8.4v0c0-2.65,0.68-1.27,1.92-3.56c1.33-2.47,76.29-11.72,76.29-11.72
	l19.15,3.31c2.06,0.36,4.19,0.36,6.25,0.02l20.07-3.33h60.91l22.52,6.55l18.6-6.55h31.17l51.98,3.12l9.75-3.12
	c0,0,73.37,4.69,73.37,15.28v0c0,3.27-11.66,5.92-28.09,8.04c-8.85,1.14-6.13-1.92-16.67-1.08c-9.33,0.74-31.85,5.42-40.91,5.94
	C290.72,278.47,268.91,279.12,268.91,279.12z"/>
</svg>
