<?xml version="1.0" encoding="utf-8"?>
<!-- Generator: Adobe Illustrator 26.2.1, SVG Export Plug-In . SVG Version: 6.00 Build 0)  -->
<svg version="1.1" id="Layer_1" xmlns="http://www.w3.org/2000/svg" xmlns:xlink="http://www.w3.org/1999/xlink" x="0px" y="0px"
	 viewBox="0 0 595.79 201.07" style="enable-background:new 0 0 595.79 201.07;" xml:space="preserve">
<style type="text/css">
	.st0{fill:#FFFFFF;}
	.st1{fill:#FDC688;}
	.st2{fill:#F68E56;}
	.st3{fill:url(#SVGID_1_);}
	.st4{fill:url(#SVGID_00000080183703437189580220000013314001658002667701_);}
	.st5{stroke:#FFFFFF;stroke-width:4;stroke-miterlimit:10;}
</style>
<path class="st0" d="M70.84,86.62c7.52-0.01,13.19,5.77,13.04,13.31c-0.13,6.92-6.27,13.12-13.16,12.61
	c-7.8-0.58-12.49-5.74-12.76-13.14C57.7,92.22,63.67,86.63,70.84,86.62z"/>
<path class="st0" d="M522.4,86.62c7.52-0.01,13.19,5.77,13.04,13.31c-0.13,6.92-6.27,13.12-13.16,12.61
	c-7.8-0.58-12.49-5.74-12.76-13.14C509.26,92.22,515.23,86.63,522.4,86.62z"/>
<g>
	<path class="st1" d="M222.04,100.02c0.18-7.12-1.35-12.18-1.18-19.3c0.06-2.47,0.01-5.64-0.04-8.82c-0.02-1.33,0.49-2.41,0.48-3.69
		c0-0.54-0.54-1.32-0.54-1.84c0-1.18,0.01-2.29,0.04-3.29c0.19-6.32-1.35-12.79,0.17-19.1c0.37-1.52-0.67-3.31-0.69-4.99
		c-0.04-2.98-0.06-5.96-0.06-8.95c0-0.55,0.49-1.52,0.49-2.07c0-0.76-0.49-1.64-0.51-3.19c-0.04-4.51-0.15-11.06-0.43-12.12
		c-4.39-1.54-8.53,0.63-12.77,0.62c-3.53,2.84-7,5.64-10.36,8.34c-0.46,2.27-0.87,4.35-1.37,6.85c1.71,4.17,1.33,8.76-0.3,12.39
		c0.57,4.3,1.02,7.75,1.48,11.21c-1.64,0.97-2.8,1.66-4.14,2.45c1.11,0.2,2.09,0.38,2.97,0.54c0.27,0.36,0.61,0.61,0.61,0.85
		c-0.12,8.34-0.27,16.67-0.42,25.01c-0.04,2.01-0.48,4.1-0.1,6.03c1.39,6.93,0.58,13.9,0.77,20.85c0.11,3.87,0.18,7.76-0.02,11.63
		c-0.22,4.28-0.77,8.54-1.31,14.17c3.03,8.38,1.13,18.15-0.56,28.08c2.38,2.51,1.92,5.69,1.94,8.76c0.04,8.16,2.78,15.19,9.01,20.56
		c2.06,1.77,4.61,3.02,7.03,4.34c1.31,0.72,2.81,1.08,4.93,1.87c-1.07,1.11-1.61,2.15-2.38,2.36c-1.61,0.45-3.33,0.63-5.01,0.63
		c-13.62,0.06-27.25,0.06-40.87,0.07c-3.06,0-6.13,0.08-9.18-0.08c-2.27-0.12-4.52-0.58-6.97-0.91c-0.08-1.27-0.14-2.13-0.19-2.81
		c2.86-1.75,5.53-3.28,8.09-4.97c8.72-5.77,12.6-14.3,12.97-24.39c0.36-9.76,0.02-19.54,0.11-29.3c0.03-2.76,0.48-5.52,0.74-8.27
		c0.06-0.62,0.24-1.26,0.12-1.85c-1.85-9.37-0.62-18.84-0.85-28.27c-0.23-9.45-0.09-18.92-0.02-28.38c0.02-2.14,0.48-4.27,0.67-6.41
		c0.11-1.23,0.27-2.49,0.11-3.69c-1.3-9.7-1.02-19.38-0.19-29.12c0.33-3.9-0.6-7.95-1.31-11.87c-0.83-4.57-4.32-7.39-7.69-10.07
		c-2.03-1.62-4.5-2.69-6.8-3.97c-1.25-0.69-2.51-1.32-1.97-3.71c3.53-0.42,7.25-1.03,11-1.28c3.7-0.24,7.43-0.05,11.14-0.17
		c1.17-0.04,2.33-0.49,3.49-0.75c30.67,0,61.34,0,92.02,0c3.13,0.42,6.26,1.04,9.41,1.21c5.33,0.28,10.67,0.28,16.25,0.4
		c0.15,1.43,0.24,2.28,0.32,3.09c-2.94,1.78-5.77,3.35-8.46,5.13c-5.51,3.64-8.51,8.43-8.3,15.47c0.27,8.91,0.2,17.85,0.08,26.78
		c-0.04,2.91-0.49,5.82-0.72,8.74c-0.1,1.23-0.36,2.53-0.11,3.7c1.57,7.36,0.77,14.81,0.8,22.21c0.03,6.31,0.79,12.69-0.83,18.95
		c-0.19,0.72-0.12,1.57,0.03,2.31c1.73,8.26,0.29,16.62,0.85,24.92c0.07,1.08,0.24,2.26-0.09,3.23c-1.56,4.58-0.58,9.05-0.08,13.67
		c0.6,5.51,0.27,11.14,0.17,16.71c-0.23,12.79,5.68,21.77,16.79,27.61c0.82,0.43,1.66,0.83,2.48,1.27c0.26,0.14,0.47,0.39,0.98,0.81
		c0.03,0.63,0.08,1.5,0.16,2.92c-1.86,0.38-3.59,0.96-5.34,1.04c-3.86,0.18-7.73,0.04-11.6,0.16c-1.17,0.04-2.32,0.49-3.49,0.75
		c-7.75,0-15.49,0-23.24,0c-1.32-0.26-2.63-0.7-3.95-0.75c-3.87-0.13-7.74-0.05-11.61-0.16c-1.94-0.06-4.07,0-4.99-3.01
		c1.47-0.59,2.81-1.2,4.2-1.67c8.35-2.82,13.17-8.81,15.44-17.12c1.23-4.5,1.87-9.05,1.73-13.74c-0.15-4.96-0.1-9.92-0.01-14.88
		c0.05-2.61,0.37-5.21,0.56-7.75c-0.2-2.34-0.47-4.63-0.56-6.94c-0.1-2.63,0.1-5.28-0.05-7.91c-0.41-7.23,0.54-14.44,0.13-21.69
		c-0.41-7.27-0.1-14.57-0.11-21.86c0-8.34-0.05-16.67,0.03-25.01c0.02-2.3,0.45-4.59,0.68-6.89c0.08-0.77,0.22-1.54,0.18-2.31
		c-0.42-8.64-0.87-17.28-1.36-26.87c-1.75-1.82-4.17-4.35-7.04-7.34c-5.09-0.8-10.39-4.09-17.09-2.56c-0.04,1.5-0.47,3.24-0.06,4.74
		c0,0-0.46,5.69-0.51,7.62c-0.09,3.73,0.22,5.65-0.12,9.38c-0.24,2.72-0.33,5.58,0.28,8.21l-0.31,9.2l0.02,7.58v5.75l-0.19,2.29
		c0,0,0.19,3.67,0.19,5.69c-0.02,3.78-0.15,10.5-0.12,11.7c0.16,6.81-0.91,8.54-0.91,14.79l-0.63,1.89c0,0,0.14,1.24-0.04,2.65
		c-0.18,1.41-0.2,2.98-0.36,3.55c-2.27,8.09-4.87,19.26-4.94,19.22l-2.91-9.13l-0.85-5.96l-2.45-6.46L222.04,100.02z"/>
	<path class="st1" d="M117.11,0c1.47,0.26,2.93,0.71,4.4,0.76c7.06,0.2,14.17-0.26,21.4,1.55c0.04,0.86,0.09,1.71,0.11,2.13
		c-3.49,2.36-6.85,4.22-9.71,6.66c-2.78,2.37-5.06,5.33-7.2,7.64c0.33,7.18,1.06,13.78-0.35,20.38c-0.29,1.34-0.41,2.83-0.15,4.16
		c1.89,9.69,0.34,19.46,0.97,29.09c-0.83,1.15-1.55,2.14-2.36,3.26c0.6,0.42,1.18,0.82,2.27,1.57c0,1.32,0.04,2.99-0.01,4.67
		c-0.2,7.88-0.59,15.75-0.59,23.63c0,8.19,0.46,16.37,0.55,24.56c0.03,2.91-0.59,5.82-0.69,8.74c-0.1,2.93,0.01,5.87,0.14,8.79
		c0.08,1.84,0.55,3.66,0.56,5.5c0.06,8.06,0.12,16.12,0,24.18c-0.08,5.26,2.1,9.33,6.16,12.35c3.21,2.38,6.7,4.37,10.31,6.7
		c0,0.62,0,1.48,0,2.74c-4.66-0.13-9.05,2.33-13.91,0.23c-3.11,1.71-6.78,0.89-10.39,0.86c-0.5,0-1.01,0.61-1.52,0.94
		c-30.67,0-61.34,0-92.02,0c-0.85-0.26-1.69-0.7-2.55-0.75c-7.51-0.41-15.03-0.75-22.55-1.11c0-1.24,0-2.48,0-3.72
		c2.61-0.86,5.23-1.71,7.13-2.33c1.73-1.96,2.85-3.67,4.37-4.88c3.73-2.97,5.04-6.91,5.09-11.42c0.06-6.36-0.04-12.72,0.04-19.07
		c0.03-2.29,0.38-4.58,0.55-6.43c-0.22-2.39-0.61-4.39-0.54-6.36c0.44-13.91-0.75-27.83,0.79-41.77c0.69-6.21-0.66-12.63-0.79-18.96
		c-0.17-8.53-0.15-17.06-0.01-25.59c0.11-6.32-0.78-12.7,0.89-18.96c0.19-0.72,0.05-1.54,0-2.32c-0.3-4.61-0.39-9.26-1.01-13.83
		c-0.36-2.68-0.96-5.7-2.51-7.78C10.45,11.04,5.93,7.24,0,5.59C0,4.34,0,3.1,0,1.86c6.13-0.35,12.26-0.79,18.39-0.99
		c1.6-0.05,3.22,0.65,4.84,1.01c0.12,0.06,0.23,0.12,0.35,0.19c-0.11-0.07-0.22-0.14-0.33-0.21C23.86,1.24,24.48,0.62,25.1,0
		C55.77,0,86.44,0,117.11,0z M37.17,22.35c-0.11-0.07-0.23-0.13-0.34-0.2c0.12,0.06,0.24,0.12,0.36,0.19
		c1.44,1.73,2.04,3.64,1.99,5.97c-0.15,6.36-0.04,12.72-0.05,19.08c-0.01,4.64,0.51,9.34-2.07,13.49c2.14,4.14,2.14,8.3,2.09,12.51
		c-0.08,8.06,0.07,16.13-0.07,24.19c-0.05,3.06-0.39,6.18-1.07,9.16c-0.61,2.64-0.83,5.08-0.1,7.75c0.69,2.51,1.21,5.18,1.15,7.76
		c-0.26,11.26,1.38,22.63-1.88,33.56c3.7,7.4,0.91,15.21,2.28,22.57c16.61,17.88,51.15,16.16,65.56-1.69
		c-0.33-3.4-0.94-7.06-0.99-10.74c-0.13-11.48-0.06-22.95-0.03-34.43c0-1.53,0.29-3.07,0.4-4.6c0.18-2.61,0.51-5.23,0.43-7.83
		c-0.14-4.47-0.75-8.93-0.8-13.39c-0.13-10.39-0.11-20.78,0-31.17c0.03-3.22,0.61-6.43,0.82-9.65c0.09-1.37-0.11-2.76-0.24-4.14
		c-0.17-1.84-0.58-3.67-0.59-5.51c-0.06-9.15-0.03-18.3-0.03-27.45c0-1.69,0-3.38,0-4.93c-7.53-8.09-17.07-10.63-27.76-11.4
		c-0.79,0.16-2.22,0.63-3.68,0.71c-2.63,0.14-5.27,0.17-7.89,0.02c-9.03-0.54-16.56,2.92-23.42,8.43
		C40.12,21.49,38.54,21.78,37.17,22.35z"/>
	<path class="st1" d="M429.74,19.52c-0.79-0.62-1.77-1.11-2.34-1.89c-1.45-1.98-2.72-4.09-4.1-6.21c-5.02-0.36-7.77-0.87-12.53-1
		c-10.19-0.28-14.39-0.7-24.57-0.42c-5.65,0.16-11.37,1.17-16.85,2.6c-7.78,2.04-13.19,7.15-15.86,14.91
		c-0.25,0.73-0.45,1.49-0.79,2.17c-0.34,0.69-0.82,1.3-1.26,1.96c0,0.8-0.17,1.62,0.03,2.34c2.43,8.81,1.74,17.82,1.71,26.77
		c-0.01,3.97,0.4,7.68,2.82,11.01c0.69,0.95,0.87,2.27,1.33,3.52c1.08,0.35,2.48,0.53,3.56,1.21c4.08,2.57,8.54,3.41,13.25,3.41
		c10.21-0.01,12.27,0.05,22.48-0.04c2.44-0.02,4.93-0.34,7.31-0.9c4.46-1.05,8-3.63,9.62-7.97c1.55-4.15,2.47-8.54,2.88-13.15
		c1.48-1.89,2.95-3.77,5.16-6.6c0.67,3.59,1.23,6.06,1.56,8.55c0.33,2.44,0.44,4.9,0.7,8.04c-0.23,0.48-0.74,1.59-1.26,2.7
		c2.72,3.71,1.3,8,1.52,12.05c0.23,4.17,0.04,8.37,0.03,12.55c-0.01,4.19,0.15,8.38-0.11,12.55c-0.39,6.15-1.11,12.28-1.65,18.42
		c-0.34,3.97-0.6,7.94-0.96,12.75c-3.78-3.35-3.86-7.49-5.92-10.48c1.9-7.8,1.01-15.31-0.99-22.66
		c-1.56-5.74-4.55-10.58-10.93-12.09c-1.34-0.32-2.75-0.41-4.13-0.43c-5.26-0.06-2.36-0.11-7.63-0.05c-4.2,0.05-8.4,0.26-12.01-2.61
		c-2.65,2.37-5.65,2.61-8.82,2.71c-8.21,0.26-15.07,5.37-17.14,12.57c-0.42,1.46-0.57,3.04-0.61,4.57c-0.09,3.72,0,7.44-0.04,11.16
		c-0.05,5.86,0.72,11.8-1.2,17.35c0.4,2.34,1.11,4.68,1.15,7.03c0.14,8.06,0.06,16.12,0.06,23.43c1.59,5.47,6.18,7.17,9.27,10.32
		c-0.07,0.11-0.14,0.23-0.2,0.34c0.06-0.12,0.13-0.24,0.19-0.35c0.6,0.14,1.26,0.16,1.78,0.45c5.11,2.88,10.77,4.33,16.34,5.81
		c5.65,1.5,11.47,2.31,17.99,3.56c0.92,0.8,2.42,2.11,4.1,3.58c0.76-0.13,1.71-0.13,2.53-0.47c5.16-2.15,4.56-1.85,9.98-1.94
		c3.53-0.06,5.05-0.62,8.45-0.94c4.79-3.7,7.12-8.75,8.79-14.07c2.25-7.21,4.17-14.51,6.44-22.52c0.96,0.99,1.89,1.53,2.17,2.3
		c1.64,4.51,1.19,9.24,0.61,13.8c-1.26,9.78-3.02,19.5-4.59,29.38c-0.81,0.27-1.51,0.68-2.21,0.71c-8.64,0.34-15.28,0.86-23.92,0.88
		c-33.29,0.09-60.57,0.03-93.87-0.04c-2.4-0.01-4.79-0.57-6.87-0.84c-1.42-3.07,0.25-3.85,2.06-4.64
		c7.42-3.25,12.81-8.56,15.85-16.11c0.8-1.99,1.18-4.14,1.8-6.2c0.56-1.87,1.19-3.71,1.66-5.18c-1.09-11.92-1.81-23.56,0.57-34.35
		c-0.5-6.31-1.21-11.83-1.32-17.36c-0.2-10.39-0.19-20.78-0.01-31.17c0.1-5.52-0.14-11.03,0.01-16.54
		c0.15-5.84,0.76-11.67,1.15-17.2c-0.41-7.16-1.08-14.08-1.12-21c-0.03-5.38-0.4-10.53-3.51-14.99c0.22-1.22,0.41-2.26,0.66-3.68
		c-1.06,0.38-1.84,0.67-2.89,1.05c-3.78-2.54-7.72-5.17-11.61-7.87c-0.22-0.15-0.07-0.86-0.12-1.85c3.77-0.44,7.51-1.09,11.27-1.25
		c5.57-0.24,11.15-0.07,16.72-0.19c1.48-0.03,2.95-0.49,4.42-0.75c31.29,0,54.57,0,85.86,0c2.19,2.6,2.67,5.79,3.2,8.99
		c1.42,8.62,3.48,17.15,3.36,25.96c-0.02,1.57-0.48,3.13-0.76,4.85c-0.85-0.38-1.28-0.44-1.35-0.63
		c-2.06-5.46-4.13-10.91-6.08-16.41c-0.34-0.97-0.15-2.12-0.21-3.19c0.06-0.12,0.12-0.23,0.18-0.35
		C429.89,19.31,429.82,19.42,429.74,19.52z"/>
</g>
<path class="st2" d="M449.49,2.02"/>
<path class="st1" d="M475-0.42c1.47,0.26,2.94,0.64,4.42,0.76c1.68,0.13,3.38,0.03,4.92,0.62c2.24,1.27,4.7,2.26,6.68,3.86
	c3.35,2.71,6.77,5.5,9.49,8.82c3.4,4.15,6.47,8.68,9.07,13.38c6.06,10.94,9.63,22.77,11.11,35.19c0.73,6.12,1.26,12.27,1.78,18.42
	c0.09,1.1-0.3,2.23-0.46,3.35c-0.35,0.05-0.69,0.11-1.04,0.16c-2.27-5.8-4.7-11.55-6.78-17.42c-2.1-5.92-6.4-11.09-5.93-17.69
	c-5.5-5.17-14.94-18.03-15.88-21.56c-3.5,1.61-4.59-3.23-7.99-2.82c0,1.49,0,3.01,0,4.54c0,18.31,0.02,36.61-0.03,54.92
	c0,1.77-0.39,3.55-0.66,5.9c0.14,0.78,0.64,2.24,0.65,3.71c0.07,10.24,0.05,20.48,0.01,30.72c0,1.22-0.12,2.51-0.54,3.64
	c-1.61,4.41-1.19,8.78-0.2,13.23c0.46,2.09,0.71,4.27,0.73,6.41c0.08,10.24,0.07,20.48,0.02,30.72c-0.01,1.82-0.31,3.63-0.47,5.37
	c0.96,0.43,2.42,0.61,2.96,1.41c3.1,4.56,7.68,7.07,12.4,9.44c0.54,0.27,1.02,0.66,1.68,1.11c-0.04,0.87-0.08,1.72-0.12,2.49
	c-7.07,1.93-14.03,1.48-20.95,1.66c-1.63,0.04-3.26,0.49-4.89,0.76c-0.62,0-1.24,0-1.86,0c-1.63-0.26-3.25-0.69-4.88-0.77
	c-6.77-0.33-13.54-0.56-20.44-0.83c-0.32-1.25-0.54-2.08-0.73-2.85c3.2-2.01,6.25-3.79,9.16-5.78c5.02-3.44,8.12-7.86,7.64-14.39
	c-0.22-3.01,0.38-6.08,0.97-9.1c-1.83-11.03-1.82-22.3-0.73-33.3c0.86-8.62-0.87-16.93-0.44-25.42c0.51-10.06,0.08-20.16,0.15-30.24
	c0.01-2.14,0.44-4.28,0.64-6.42c0.08-0.92,0.21-1.86,0.08-2.76c-1.19-8.16-1.22-16.3,0.09-24.47c0.29-1.81,0.05-3.71-0.04-5.57
	c-0.24-4.93-0.93-9.88-0.7-14.79c0.3-6.15-2.48-10.42-7.07-13.78c-2.85-2.09-5.98-3.8-9.43-5.96c-0.03-0.35-0.11-1.21-0.24-2.63
	c5.47-0.01,10.61-2.55,15.52-0.38c1.94-0.32,3.52-0.59,5.1-0.84c1.78-0.28,3.56-0.53,5.35-0.8C473.76-0.42,474.38-0.42,475-0.42z"/>
<path class="st1" d="M567.94,200.65c-1.63-0.26-3.27-0.83-4.88-0.73c-3.45,0.22-6.38-0.78-9.03-2.91c-1.44-1.16-3.11-2.07-4.43-3.35
	c-0.99-0.96-1.59-2.33-2.86-4.3c-5.59-2.53-8.79-8.51-11.99-14.28c-6.97-12.58-11.18-26.1-12.51-40.47
	c-0.51-5.53-0.99-11.06-1.38-16.6c-0.05-0.77,0.53-1.59,1.13-3.22c4.13,10.58,7.28,20.68,11.94,30.02
	c4.6,9.21,10.73,17.65,16.71,26.02c2.64,1.75,5.27,3.5,8.43,5.6c0.16-1.79,0.34-2.94,0.34-4.08c0.03-6.98-0.06-13.96,0.05-20.93
	c0.04-2.76,0.51-5.51,0.75-8.28c0.09-1.08,0.26-2.19,0.08-3.24c-1.83-10.63-1.33-21.4-0.52-31.98c0.56-7.34-0.86-14.44-0.45-21.69
	c0.46-8.04,0.04-16.12,0.14-24.18c0.03-2.76,0.58-5.52,0.72-8.28c0.08-1.67-0.07-3.38-0.29-5.05c-0.67-5.09-0.95-10.15,0.08-14.12
	c-0.23-3.8-0.52-6.56-0.52-9.32c-0.01-4.88-1.62-9.05-4.94-12.63c-1.07-1.15-1.81-2.59-3.08-4.44c-3.74,0.15-6.94-2.15-9.8-5.02
	c0.14-0.47,0.29-0.93,0.43-1.4c3.44-0.44,6.86-1.06,10.31-1.27c4.01-0.24,8.05-0.06,12.07-0.18c1.17-0.04,2.33-0.49,3.49-0.75
	c0.93,0,1.86,0,2.79,0c1.78,0.27,3.56,0.76,5.34,0.76c6.47-0.02,12.92,0.13,19.55,1.51c0.05,0.89,0.1,1.75,0.15,2.59
	c-4.47,2.74-8.76,5.38-13.05,8.01c-0.21,0.69-0.27,1.69-0.76,2.38c-2.24,3.2-2.84,6.75-2.77,10.58c0.16,8.26-1.57,16.44-0.14,24.8
	c0.88,5.12,0.23,10.52,0.13,15.79c-0.05,2.76-0.39,5.51-0.65,9.01c1.06,5.2,1.09,11.17,0.04,17.17c-0.4,2.26-1.24,4.74-0.72,6.82
	c2.01,7.97,1.25,16.02,1.3,24.04c0.03,3.98-0.49,7.96-0.78,12.36c0.16,0.47,0.8,1.46,0.77,2.44c-0.21,6.94,0.86,13.94-0.82,20.83
	c-0.32,1.32-0.78,2.93-0.33,4.07c1.73,4.37,1.16,8.87,1.19,13.33c0.03,4.23,1.21,7.87,4.28,10.91c0.99,0.98,1.56,2.4,2.08,3.23
	c3.49,1.81,6.82,3.54,10.23,5.31c-0.06,1.12-0.11,1.97-0.17,2.96c-6.63,1.2-13.07,1.47-19.54,1.42c-1.78-0.02-3.56,0.49-5.34,0.76
	C569.8,200.65,568.87,200.65,567.94,200.65z"/>
<linearGradient id="SVGID_1_" gradientUnits="userSpaceOnUse" x1="497.9916" y1="24.3989" x2="520.1231" y2="81.4729">
	<stop  offset="0" style="stop-color:#FDC788"/>
	<stop  offset="0.065" style="stop-color:#FED09C"/>
	<stop  offset="0.1634" style="stop-color:#FDDCB6"/>
	<stop  offset="0.2716" style="stop-color:#FDE5CC"/>
	<stop  offset="0.3912" style="stop-color:#FDEDDD"/>
	<stop  offset="0.5282" style="stop-color:#FCF3EA"/>
	<stop  offset="0.698" style="stop-color:#FCF6F2"/>
	<stop  offset="1" style="stop-color:#FCF7F5"/>
</linearGradient>
<path class="st3" d="M520.69,62.2c-1.49-12.42-5.05-24.25-11.11-35.19c-2.6-4.7-5.67-9.23-9.07-13.38c-2.26-2.76-5-5.15-7.79-7.43
	c-2.36,6.23-5.09,12.53-5.82,19.15c1.72,1.18,3,3.25,5.47,2.11c0.94,3.53,10.39,16.4,15.88,21.56c-0.46,6.59,3.83,11.77,5.93,17.69
	c2.08,5.87,4.51,11.62,6.78,17.42c0.35-0.05,0.69-0.11,1.04-0.16c0.17-1.12,0.55-2.25,0.46-3.35
	C521.95,74.48,521.42,68.32,520.69,62.2z"/>
<linearGradient id="SVGID_00000015313669539723701940000013053639031257667213_" gradientUnits="userSpaceOnUse" x1="549.5164" y1="182.7042" x2="519.0704" y2="122.669">
	<stop  offset="0" style="stop-color:#FDC788"/>
	<stop  offset="0.1221" style="stop-color:#FED2A0"/>
	<stop  offset="0.2848" style="stop-color:#FEDEBC"/>
	<stop  offset="0.4523" style="stop-color:#FEE7D2"/>
	<stop  offset="0.6241" style="stop-color:#FEEEE3"/>
	<stop  offset="0.803" style="stop-color:#FEF2ED"/>
	<stop  offset="1" style="stop-color:#FEF4F0"/>
</linearGradient>
<path style="fill:url(#SVGID_00000015313669539723701940000013053639031257667213_);" d="M550.65,170.87
	c-5.98-8.36-12.11-16.81-16.71-26.02c-4.66-9.34-7.81-19.44-11.94-30.02c-0.59,1.63-1.18,2.45-1.13,3.22
	c0.38,5.54,0.87,11.07,1.38,16.6c1.33,14.37,5.54,27.89,12.51,40.47c3.2,5.77,6.4,11.75,11.99,14.28c1.27,1.97,1.87,3.34,2.86,4.3
	c0.92,0.89,2.01,1.61,3.08,2.35c2.96-5.85,3.38-14.29,3.79-21.31C554.41,173.37,552.52,172.12,550.65,170.87z"/>
<polygon class="st5" points="70.92,123.1 91.36,87.7 50.48,87.7 "/>
</svg>
