<?xml version="1.0" encoding="utf-8"?>
<!-- Generator: Adobe Illustrator 26.2.1, SVG Export Plug-In . SVG Version: 6.00 Build 0)  -->
<svg version="1.1" id="Layer_1" xmlns="http://www.w3.org/2000/svg" xmlns:xlink="http://www.w3.org/1999/xlink" x="0px" y="0px"
	 viewBox="0 0 456.67 950.87" style="enable-background:new 0 0 456.67 950.87;" xml:space="preserve">
<style type="text/css">
	.st0{fill:none;}
	.st1{fill:#A0998D;}
</style>
<g>
	<polygon class="st0" points="329.96,550.31 371.03,551.7 369.69,591.58 330.71,592.27 	"/>
	<path class="st1" d="M315.76,549.83l7.36,401.03l6.85-400.55l41.07,1.38l-0.54,63.17l11.3,113.96l6.54-114.01l57.42,0.83v-15.23
		l-0.18-10.19l-9.83,0.18l-46.85,0.84l-1.38-40.92l0.25-14.73l-8.94,0.41l-49.08,1.65l-0.89-50.11l-0.11-6.09l-5.88,0.1l-6.09,11.86
		l-0.8,44.7L315.76,549.83z"/>
</g>
<g>
	<polygon class="st0" points="329.96,373.66 371.03,372.28 369.69,332.4 330.71,331.7 	"/>
	<path class="st1" d="M315.97,385.87l6.12,44.6l0.77,11.96l5.88,0.1l0.11-6.09l0.89-50.11l49.08,1.65l8.94,0.41l-0.25-14.73
		l1.38-40.92l0.62-22.37l-8.75-176.39l-11.66,176.76l-37.95,0.68L324.37,2.48l-9.03,309.12l-0.34,19.68l0.77,42.86L315.97,385.87z
		 M330.71,331.7l38.98,0.7l1.34,39.88l-41.07,1.38L330.71,331.7z"/>
</g>
<path class="st1" d="M371.03,551.7"/>
<g>
	<polygon class="st0" points="389,483.86 430.07,482.47 428.73,442.59 389.75,441.9 	"/>
	<path class="st1" d="M447.57,423.09l-9.29-200.59l-8.21,200l-45.35-1.53l-8.94-0.41l0.25,14.73l-1.38,40.92l-0.62,22.37l20.41-0.36
		l33.78-0.63l19.98-0.24l0.34-19.68l-0.77-42.86L447.57,423.09z M389.75,441.9l38.98,0.7l1.34,39.88L389,483.86L389.75,441.9z"/>
</g>
</svg>
