<?xml version="1.0" encoding="utf-8"?>
<!-- Generator: Adobe Illustrator 26.2.1, SVG Export Plug-In . SVG Version: 6.00 Build 0)  -->
<svg version="1.1" id="Layer_1" xmlns="http://www.w3.org/2000/svg" xmlns:xlink="http://www.w3.org/1999/xlink" x="0px" y="0px"
	 viewBox="0 0 456.67 1901.73" style="enable-background:new 0 0 456.67 1901.73;" xml:space="preserve">
<style type="text/css">
	.st0{fill:none;}
	.st1{fill:#A0998D;}
</style>
<g>
	<polygon class="st0" points="329.96,1036.71 371.03,1038.1 369.69,1077.98 330.71,1078.68 	"/>
	<path class="st1" d="M315.76,1036.24l7.36,223.2l6.85-222.72l41.07,1.38l-0.54,63.17l11.3,435.27l6.54-435.31l37.12,0.54
		l-0.19,10.46l1.94,3.78l-2.25,13.24l16.56,772.5l2.74-726.06l1.48-88.85l-0.18-10.19l-9.83,0.18l-46.85,0.84l-1.38-40.92h44.22
		l-0.4-14.37l-43.57-0.36l-8.94,0.41l-49.08,1.65l-0.89-50.11l-0.11-6.09l-5.88,0.1l-6.09,11.86l-0.8,44.7L315.76,1036.24z"/>
</g>
<polygon class="st1" points="371.03,1023 371.03,967.85 447.33,971.79 446.24,1036.71 425.83,1036.72 427.35,982.42 386.28,981.04 
	387.03,1023 "/>
<g>
	<polygon class="st0" points="329.96,860.06 371.03,858.68 369.69,818.8 330.71,818.1 	"/>
	<path class="st1" d="M315.97,872.27l6.12,44.6l0.77,11.96l5.88,0.1l0.11-6.09l0.89-50.11l49.08,1.65l8.94,0.41l-0.25-14.73
		l1.38-40.92l46.85,0.84l9.83,0.18l0.18-10.19l1.51-84.46l-2.99-4.4l0.98-30.77L440.64,0l-15.68,767.54l2.25,13.24l-1.94,3.78
		l0.28,11.57l-36.04,0.64l-8.38-447.69l-12.03,448.05l-37.95,0.68l-6.78-205.86l-9.03,206.05l-0.34,19.68l0.77,42.86L315.97,872.27z
		 M330.71,818.1l38.98,0.7l1.34,39.88l-41.07,1.38L330.71,818.1z"/>
</g>
<path class="st1" d="M371.03,1038.1"/>
</svg>
