<?xml version="1.0" encoding="utf-8"?>
<!-- Generator: Adobe Illustrator 26.2.1, SVG Export Plug-In . SVG Version: 6.00 Build 0)  -->
<svg version="1.1" id="Layer_1" xmlns="http://www.w3.org/2000/svg" xmlns:xlink="http://www.w3.org/1999/xlink" x="0px" y="0px"
	 viewBox="0 0 950.86 456.67" style="enable-background:new 0 0 950.86 456.67;" xml:space="preserve">
<style type="text/css">
	.st0{fill:none;}
	.st1{fill:#A0998D;}
</style>
<g>
	<polygon class="st0" points="593.93,123.3 595.32,82.22 635.2,83.57 635.9,122.55 	"/>
	<path class="st1" d="M593.46,137.5l42.86,0.77l21.19-0.48l293.35-8.62l-293.35-8.08l0.98-38.31l163.85-11.99l-163.89-5.85
		l0.54-37.12L644.06,7.54l-10.19,0.18l0.18,9.83l0.84,46.85l-40.92,1.38V21.53l-14.37,0.4l-0.36,43.57l0.41,8.94l1.65,49.08
		l-50.11,0.89l-6.09,0.11l0.1,5.88l11.86,6.09l44.7,0.8L593.46,137.5z M593.93,123.3l1.38-41.07l39.88,1.34l0.7,38.98L593.93,123.3z
		"/>
</g>
<polygon class="st1" points="580.22,82.22 525.07,82.22 529.01,5.93 593.93,7.02 593.94,27.42 539.64,25.91 538.26,66.98 
	580.22,66.23 "/>
<g>
	<polygon class="st0" points="417.28,123.3 415.9,82.22 376.02,83.57 375.32,122.55 	"/>
	<path class="st1" d="M429.49,137.29l44.6-6.12l11.96-0.77l0.1-5.88l-6.09-0.11l-50.11-0.89l1.65-49.08l0.41-8.94l-0.36-43.57
		l-14.37-0.4v44.22l-40.92-1.38l0.84-46.85l0.18-9.83l-10.19-0.18l-14.63,3.47L278,18.47l75.35,9.24l0.64,36.04L145.11,74.53
		l209.25,9.63l0.68,37.95L0,128.89l355.22,9.03l19.68,0.34l42.86-0.77L429.49,137.29z M375.32,122.55l0.7-38.98l39.88-1.34
		l1.38,41.07L375.32,122.55z"/>
</g>
</svg>
