<?xml version="1.0" encoding="utf-8"?>
<!-- Generator: Adobe Illustrator 26.2.1, SVG Export Plug-In . SVG Version: 6.00 Build 0)  -->
<svg version="1.1" id="Layer_1" xmlns="http://www.w3.org/2000/svg" xmlns:xlink="http://www.w3.org/1999/xlink" x="0px" y="0px"
	 viewBox="0 0 1901.73 456.67" style="enable-background:new 0 0 1901.73 456.67;" xml:space="preserve">
<style type="text/css">
	.st0{fill:none;}
	.st1{fill:#A0998D;}
</style>
<g>
	<polygon class="st0" points="1036.71,123.3 1038.1,82.22 1077.98,83.57 1078.68,122.55 	"/>
	<path class="st1" d="M1036.24,137.5l42.86,0.77l21.19-0.48v-16.7l0.98-38.31l389.47-11.99l-389.51-5.85l0.54-37.12l10.46,0.19
		l3.78-1.94l13.24,2.25l772.5-16.56l-726.06-2.74l-88.85-1.48l-10.19,0.18l0.18,9.83l0.84,46.85l-40.92,1.38V21.53l-14.37,0.4
		l-0.36,43.57l0.41,8.94l1.65,49.08l-50.11,0.89l-6.09,0.11l0.1,5.88l11.86,6.09l44.7,0.8L1036.24,137.5z M1036.71,123.3l1.38-41.07
		l39.88,1.34l0.7,38.98L1036.71,123.3z"/>
</g>
<polygon class="st1" points="1023,82.22 967.85,82.22 971.79,5.93 1036.71,7.02 1036.72,27.42 982.42,25.91 981.04,66.98 
	1023,66.23 "/>
<g>
	<polygon class="st0" points="860.06,123.3 858.68,82.22 818.8,83.57 818.1,122.55 	"/>
	<path class="st1" d="M872.27,137.29l44.6-6.12l11.96-0.77l0.1-5.88l-6.09-0.11l-50.11-0.89l1.65-49.08l0.41-8.94l-0.36-43.57
		l-14.37-0.4v44.22l-40.92-1.38l0.84-46.85l0.18-9.83l-10.19-0.18L725.51,6l-4.4,2.99l-30.77-0.98L0,12.62L767.54,28.3l13.24-2.25
		l3.78,1.94l11.57-0.28l0.64,36.04l0.19,10.78l0.17,9.63l0.68,37.95l-205.86,6.78l206.05,9.03l19.68,0.34l42.86-0.77L872.27,137.29z
		 M818.1,122.55l0.7-38.98l39.88-1.34l1.38,41.07L818.1,122.55z"/>
</g>
</svg>
