<?xml version="1.0" encoding="utf-8"?>
<!-- Generator: Adobe Illustrator 26.2.1, SVG Export Plug-In . SVG Version: 6.00 Build 0)  -->
<svg version="1.1" id="Layer_1" xmlns="http://www.w3.org/2000/svg" xmlns:xlink="http://www.w3.org/1999/xlink" x="0px" y="0px"
	 viewBox="0 0 950.86 456.67" style="enable-background:new 0 0 950.86 456.67;" xml:space="preserve">
<style type="text/css">
	.st0{fill:none;}
	.st1{fill:#A0998D;}
</style>
<g>
	<polygon class="st0" points="568.79,124.11 570.18,83.03 610.06,84.38 610.76,123.36 	"/>
	<path class="st1" d="M568.32,138.3l42.86,0.77l21.19-0.48l293.35-8.62l-293.35-8.08l0.98-38.31L797.2,71.6l-163.89-5.85l0.54-37.12
		L618.92,8.35l-10.19,0.18l0.18,9.83l0.84,46.85l-40.92,1.38V22.34l-14.37,0.4l-0.36,43.57l0.41,8.94l1.65,49.08l-50.11,0.89
		l-6.09,0.11l0.1,5.88l11.86,6.09l44.7,0.8L568.32,138.3z M568.79,124.11l1.38-41.07l39.88,1.34l0.7,38.98L568.79,124.11z"/>
</g>
<polygon class="st1" points="555.08,83.03 499.93,83.03 503.87,6.73 568.79,7.82 568.8,28.23 514.5,26.72 513.12,67.79 
	555.08,67.04 "/>
<g>
	<polygon class="st0" points="392.14,124.11 390.76,83.03 350.88,84.38 350.18,123.36 	"/>
	<path class="st1" d="M404.35,138.09l44.6-6.12l11.96-0.77l0.1-5.88l-6.09-0.11l-50.11-0.89l1.65-49.08l0.41-8.94l-0.36-43.57
		l-14.37-0.4v44.22l-40.92-1.38l0.84-46.85l0.18-9.83l-10.19-0.18l-14.63,3.47l-74.56,7.49l75.35,9.24l0.64,36.04L119.97,75.33
		l209.25,9.63l0.68,37.95l-310.76,6.78l310.94,9.03l19.68,0.34l42.86-0.77L404.35,138.09z M350.18,123.36l0.7-38.98l39.88-1.34
		l1.38,41.07L350.18,123.36z"/>
</g>
</svg>
