<?xml version="1.0" encoding="utf-8"?>
<!-- Generator: Adobe Illustrator 26.2.1, SVG Export Plug-In . SVG Version: 6.00 Build 0)  -->
<svg version="1.1" id="Layer_1" xmlns="http://www.w3.org/2000/svg" xmlns:xlink="http://www.w3.org/1999/xlink" x="0px" y="0px"
	 viewBox="0 0 950.86 456.67" style="enable-background:new 0 0 950.86 456.67;" xml:space="preserve">
<style type="text/css">
	.st0{fill:none;}
	.st1{fill:#A0998D;}
</style>
<g>
	<polygon class="st0" points="569.15,123.3 570.54,82.22 610.42,83.57 611.12,122.55 	"/>
	<path class="st1" d="M568.68,137.5l42.86,0.77l21.19-0.48l137.56-8.62l-137.56-8.08l0.98-38.31l189.15-11.99l-189.19-5.85
		l0.54-37.12l316.65-9.64L634.51,7.54l-25.42,0.18l0.18,9.83l0.84,46.85l-40.92,1.38V21.53l-14.37,0.4l-0.36,43.57l0.41,8.94
		l1.65,49.08l-50.11,0.89l-6.09,0.11l0.1,5.88l11.86,6.09l44.7,0.8L568.68,137.5z M569.15,123.3l1.38-41.07l39.88,1.34l0.7,38.98
		L569.15,123.3z"/>
</g>
<polygon class="st1" points="514.86,25.91 569.16,27.42 569.15,7.02 504.23,5.93 503.25,24.9 "/>
<polygon class="st1" points="500.29,82.22 555.44,82.22 555.44,66.23 501.77,67.19 "/>
<g>
	<polygon class="st0" points="392.5,123.3 391.12,82.22 351.24,83.57 350.54,122.55 	"/>
	<path class="st1" d="M404.71,137.29l44.6-6.12l11.96-0.77l0.1-5.88l-6.09-0.11l-50.11-0.89l1.65-49.08l0.41-8.94l-14.73,0.25
		l-40.92-1.38l0.84-46.85l0.18-9.83l-10.19-0.18l-14.63,3.47L0,18.47l328.57,9.24l0.64,36.04L120.33,74.53l209.25,9.63l0.68,37.95
		l-134.85,6.78l135.03,9.03l19.68,0.34l42.86-0.77L404.71,137.29z M350.54,122.55l0.7-38.98l39.88-1.34l1.38,41.07L350.54,122.55z"
		/>
</g>
</svg>
